<svg width="30" height="19" viewBox="0 0 30 19" fill="none" xmlns="http://www.w3.org/2000/svg">
<path d="M28.4987 6.28678e-06H0V2.92308H3.44984L8.73109 17.0752C8.9421 17.6386 9.32553 18.1253 9.82957 18.4695C10.3336 18.8138 10.9339 18.9989 11.5495 19H23.9989V16.0769H11.5495L10.4575 13.1538H23.9989C24.5989 13.1538 25.1418 12.806 25.3773 12.2682L29.8771 2.03739C29.9757 1.81514 30.016 1.57247 29.9943 1.33127C29.9726 1.09007 29.8896 0.85793 29.7528 0.655781C29.6161 0.453632 29.4298 0.287838 29.2109 0.173354C28.9919 0.058869 28.7472 -0.000704514 28.4987 6.28678e-06Z" fill="black"/>
</svg>
